<svg width="24" height="24" viewBox="0 0 24 24" fill="none" xmlns="http://www.w3.org/2000/svg">
<g clip-path="url(#clip0_289_60914)">
<path fill-rule="evenodd" clip-rule="evenodd" d="M10.0192 1.00049C4.76191 1.00049 0.5 5.26239 0.5 10.5197C0.5 15.777 4.76191 20.0389 10.0192 20.0389C12.3685 20.0389 14.5191 19.1879 16.1793 17.7774C16.2184 17.8503 16.2688 17.9189 16.3304 17.9805L21.2257 22.8759C21.5637 23.2138 22.1116 23.2138 22.4496 22.8759C22.7875 22.5378 22.7875 21.99 22.4496 21.652L17.5542 16.7566C17.4904 16.6928 17.419 16.6409 17.3429 16.6012C18.7139 14.952 19.5385 12.8321 19.5385 10.5197C19.5385 5.26239 15.2765 1.00049 10.0192 1.00049ZM2.23077 10.5197C2.23077 6.21827 5.71778 2.73126 10.0192 2.73126C14.3207 2.73126 17.8077 6.21827 17.8077 10.5197C17.8077 14.8212 14.3207 18.3082 10.0192 18.3082C5.71778 18.3082 2.23077 14.8212 2.23077 10.5197Z" fill="white"/>
<path fill-rule="evenodd" clip-rule="evenodd" d="M10.0192 1.00049C4.76191 1.00049 0.5 5.26239 0.5 10.5197C0.5 15.777 4.76191 20.0389 10.0192 20.0389C12.3685 20.0389 14.5191 19.1879 16.1793 17.7774C16.2184 17.8503 16.2688 17.9189 16.3304 17.9805L21.2257 22.8759C21.5637 23.2138 22.1116 23.2138 22.4496 22.8759C22.7875 22.5378 22.7875 21.99 22.4496 21.652L17.5542 16.7566C17.4904 16.6928 17.419 16.6409 17.3429 16.6012C18.7139 14.952 19.5385 12.8321 19.5385 10.5197C19.5385 5.26239 15.2765 1.00049 10.0192 1.00049ZM2.23077 10.5197C2.23077 6.21827 5.71778 2.73126 10.0192 2.73126C14.3207 2.73126 17.8077 6.21827 17.8077 10.5197C17.8077 14.8212 14.3207 18.3082 10.0192 18.3082C5.71778 18.3082 2.23077 14.8212 2.23077 10.5197Z" fill="black" fill-opacity="0.9"/>
</g>
<defs>
<clipPath id="clip0_289_60914">
<rect width="22.5" height="22.5" fill="white" transform="translate(0.5 1.00049)"/>
</clipPath>
</defs>
</svg>
