<svg width="24" height="24" viewBox="0 0 24 24" fill="none" xmlns="http://www.w3.org/2000/svg">
<path fill-rule="evenodd" clip-rule="evenodd" d="M12.2503 5.05128C11.2824 4.04799 9.95298 3.40784 8.59208 3.19492C6.86929 2.92538 4.99126 3.32742 3.66529 4.67141C2.15246 6.2048 1.67477 8.06784 1.93088 9.86395C2.18379 11.6376 3.14563 13.3277 4.47912 14.6184C5.63533 15.7373 7.18834 17.2128 8.58939 18.4114C9.28821 19.0093 9.96458 19.5517 10.5438 19.9488C10.8326 20.1467 11.1139 20.3202 11.3732 20.4472C11.6079 20.5623 11.9229 20.6898 12.2496 20.6898C12.5724 20.6898 12.8859 20.5668 13.1231 20.4535C13.384 20.3289 13.6673 20.1583 13.9587 19.9629C14.5432 19.571 15.2254 19.0349 15.9304 18.4403C17.3437 17.2482 18.9073 15.7707 20.0699 14.6097C21.3716 13.3099 22.3207 11.618 22.5701 9.84773C22.8227 8.05454 22.351 6.19582 20.837 4.66983C19.5089 3.33116 17.6327 2.92724 15.91 3.19519C14.5485 3.40697 13.2191 4.04639 12.2503 5.05128ZM8.33866 4.73913C7.01816 4.53252 5.70686 4.8563 4.81882 5.7564C3.67449 6.91629 3.32331 8.28804 3.51727 9.64829C3.71442 11.0309 4.4816 12.4187 5.60668 13.5076C6.75921 14.623 8.28307 16.07 9.64495 17.2352C10.3276 17.8193 10.9541 18.3192 11.4642 18.6689C11.7201 18.8443 11.93 18.9703 12.0915 19.0495C12.1714 19.0886 12.2235 19.1082 12.252 19.1178C12.2812 19.1083 12.3355 19.0887 12.419 19.0488C12.5825 18.9706 12.7944 18.8465 13.0521 18.6736C13.5658 18.3292 14.197 17.8357 14.8833 17.2568C16.2524 16.102 17.7823 14.657 18.9248 13.5163C20.028 12.4148 20.7882 11.0197 20.9833 9.63459C21.1753 8.27236 20.8268 6.9072 19.6867 5.75798C18.7946 4.8589 17.4817 4.53434 16.162 4.73962C14.8374 4.94568 13.6084 5.67284 12.9309 6.7384C12.7849 6.9682 12.5275 7.10797 12.2505 7.10797C11.9735 7.10797 11.7162 6.9682 11.5701 6.7384C10.8944 5.67548 9.66438 4.94654 8.33866 4.73913Z" fill="white"/>
<path fill-rule="evenodd" clip-rule="evenodd" d="M12.2503 5.05128C11.2824 4.04799 9.95298 3.40784 8.59208 3.19492C6.86929 2.92538 4.99126 3.32742 3.66529 4.67141C2.15246 6.2048 1.67477 8.06784 1.93088 9.86395C2.18379 11.6376 3.14563 13.3277 4.47912 14.6184C5.63533 15.7373 7.18834 17.2128 8.58939 18.4114C9.28821 19.0093 9.96458 19.5517 10.5438 19.9488C10.8326 20.1467 11.1139 20.3202 11.3732 20.4472C11.6079 20.5623 11.9229 20.6898 12.2496 20.6898C12.5724 20.6898 12.8859 20.5668 13.1231 20.4535C13.384 20.3289 13.6673 20.1583 13.9587 19.9629C14.5432 19.571 15.2254 19.0349 15.9304 18.4403C17.3437 17.2482 18.9073 15.7707 20.0699 14.6097C21.3716 13.3099 22.3207 11.618 22.5701 9.84773C22.8227 8.05454 22.351 6.19582 20.837 4.66983C19.5089 3.33116 17.6327 2.92724 15.91 3.19519C14.5485 3.40697 13.2191 4.04639 12.2503 5.05128ZM8.33866 4.73913C7.01816 4.53252 5.70686 4.8563 4.81882 5.7564C3.67449 6.91629 3.32331 8.28804 3.51727 9.64829C3.71442 11.0309 4.4816 12.4187 5.60668 13.5076C6.75921 14.623 8.28307 16.07 9.64495 17.2352C10.3276 17.8193 10.9541 18.3192 11.4642 18.6689C11.7201 18.8443 11.93 18.9703 12.0915 19.0495C12.1714 19.0886 12.2235 19.1082 12.252 19.1178C12.2812 19.1083 12.3355 19.0887 12.419 19.0488C12.5825 18.9706 12.7944 18.8465 13.0521 18.6736C13.5658 18.3292 14.197 17.8357 14.8833 17.2568C16.2524 16.102 17.7823 14.657 18.9248 13.5163C20.028 12.4148 20.7882 11.0197 20.9833 9.63459C21.1753 8.27236 20.8268 6.9072 19.6867 5.75798C18.7946 4.8589 17.4817 4.53434 16.162 4.73962C14.8374 4.94568 13.6084 5.67284 12.9309 6.7384C12.7849 6.9682 12.5275 7.10797 12.2505 7.10797C11.9735 7.10797 11.7162 6.9682 11.5701 6.7384C10.8944 5.67548 9.66438 4.94654 8.33866 4.73913Z" fill="black" fill-opacity="0.9"/>
</svg>
