<?xml version="1.0" encoding="UTF-8"?>
<svg id="Layer_2" data-name="Layer 2" xmlns="http://www.w3.org/2000/svg" viewBox="0 0 119.2 118.91">
  <g id="Layer_1-2" data-name="Layer 1">
    <g>
      <path d="M83.84,91.96c-12.18,0-21.31-9.21-28.65-16.61l-1.5-1.51c-2.58-2.58-4.97-3.81-7.07-3.64-4.16.33-8.13,5.78-10.76,9.39-1.12,1.54-2,2.75-2.91,3.66-2.61,2.61-6.98,6.97-13,1.46-.72-.66-10.46-12.21-10.52-12.29-7.16-9.9-7.79-11.31-8.09-11.99-2.44-5.51-1.51-11.81,2.43-16.47.48-.62,4.57-5.94,8.89-11.55l10.41-13.52q5.92-7.69,7.12-8.12c1.7-.6,1.8-.56,7.21,2,.94.44,2.16,1.02,3.28,1.54.91-1.57,2.15-3.73,3.72-6.46q.78-1.36.89-1.52c.76-1.08,1.14-1.62,8.67-3.99C60.77.21,62.31.17,62.81.15c2.07-.05,3.23,1.04,3.74,1.69q.65.85,1.72,6.62c.43,2.33,1.07,5.76,1.47,7.87,1.85.93,4.65,2.32,7.07,3.5.16-2.79.36-7.05.59-13.56.08-2.17.12-3.48,1.73-4.7,3.05-2.29,7.39-2.07,10.35.5l.36.31.28.39c.63.87,3.52,5.22,8.17,12.25,4.17,6.3,9.36,14.13,10.29,15.4.41.57.83,1.13,1.25,1.7,6.38,8.65,14.31,19.41,5.33,32.26-.06.09-.15.24-.27.44-7.46,12.37-18.91,27.12-31.07,27.12ZM47.03,61.69c4.33,0,8.59,2.06,12.67,6.14l1.52,1.53c6.55,6.61,13.97,14.09,22.61,14.09,6.21,0,15.1-8.6,23.79-23.01.28-.47.47-.77.54-.87,5.26-7.49,1.46-13.39-5.18-22.39-.43-.58-.86-1.16-1.28-1.74-.96-1.32-4.96-7.35-10.51-15.72-1.91-2.88-3.95-5.96-5.5-8.29-.08,2.14-.19,4.57-.31,6.83-.13,2.46-.25,4.41-.37,5.78-.19,2.17-.54,6.21-4.56,6.28-1.14.01-1.56.03-9.48-3.87q-8.41-4.14-9.02-5.81l-.06-.19c-.13-.4-.17-.54-2-10.44-.04-.19-.07-.38-.1-.56-2.72.78-6.26,1.91-8,2.58l-.03.05c-.82,1.43-2.23,3.88-3.44,5.97-.61,1.05-1.17,2.02-1.58,2.71-.83,1.42-2.38,4.05-5.63,3.02-.77-.24-2.43-1-7.36-3.33-.28-.13-.58-.27-.87-.41-3.03,3.93-8.89,11.55-13.51,17.55q-8.96,11.65-9.1,11.81c-1.85,2.16-2.3,5.06-1.18,7.58.11.23,1.04,1.93,7.12,10.34.93,1.11,8.15,9.61,9.48,11.11.41-.38.89-.86,1.23-1.2.43-.44,1.25-1.56,2.05-2.65,3.55-4.87,8.91-12.23,16.97-12.86.36-.03.71-.04,1.07-.04Z"/>
      <path d="M83.82,118.91c-1.52,0-2.72,0-12.35-10.92l-.2-.23-.16-.26c-1.5-2.44-1.62-5.27-.33-7.58,1.26-2.25,3.63-3.6,6.33-3.6h13.4c2.7,0,5.07,1.35,6.33,3.6,1.29,2.31,1.17,5.14-.33,7.58l-.16.26-.2.23c-9.63,10.92-10.83,10.92-12.35,10.92ZM76.98,103.65c2.35,2.65,5.11,5.61,6.85,7.31,1.74-1.7,4.5-4.66,6.85-7.31.07-.15.08-.25.08-.3-.02,0-.09-.02-.22-.02h-13.4c-.18,0-.25.04-.25.04h0s.02.1.1.27Z"/>
    </g>
  </g>
</svg>